Basalte-Fond.ufo
<glyph name="exclam" format="2">
	<advance width="329"/>
	<unicode hex="0021"/>
	<outline>
		<contour>
			<point x="117" y="250" type="line"/>
			<point x="212" y="250" type="line"/>
			<point x="249" y="800" type="line"/>
			<point x="80" y="800" type="line"/>
		</contour>
		<contour>
			<point x="87" y="0" type="line"/>
			<point x="242" y="0" type="line"/>
			<point x="242" y="164" type="line"/>
			<point x="87" y="164" type="line"/>
		</contour>
	</outline>
</glyph>
<glyph name="numbersign" format="2">
	<advance width="655"/>
	<unicode hex="0023"/>
	<outline>
		<contour>
			<point x="65" y="502" type="line"/>
			<point x="650" y="502" type="line"/>
			<point x="650" y="620" type="line"/>
			<point x="65" y="620" type="line"/>
		</contour>
		<contour>
			<point x="5" y="193" type="line"/>
			<point x="590" y="193" type="line"/>
			<point x="590" y="311" type="line"/>
			<point x="5" y="311" type="line"/>
		</contour>
		<component base="slash" xOffset="13"/>
		<component base="slash" xOffset="285"/>
	</outline>
</glyph>
<glyph name="dollar" format="2">
	<advance width="604"/>
	<unicode hex="0024"/>
	<outline>
		<contour>
			<point x="303" y="50" type="curve" smooth="yes"/>
			<point x="473" y="50"/>
			<point x="540" y="106"/>
			<point x="540" y="242" type="curve" smooth="yes"/>
			<point x="540" y="357" type="line" smooth="yes"/>
			<point x="540" y="432"/>
			<point x="493" y="470"/>
			<point x="405" y="471" type="curve" smooth="yes"/>
			<point x="244" y="472" type="line" smooth="yes"/>
			<point x="211" y="472"/>
			<point x="201" y="477"/>
			<point x="201" y="515" type="curve" smooth="yes"/>
			<point x="201" y="548" type="line" smooth="yes"/>
			<point x="201" y="602"/>
			<point x="217" y="615"/>
			<point x="303" y="615" type="curve" smooth="yes"/>
			<point x="385" y="615"/>
			<point x="401" y="602"/>
			<point x="401" y="548" type="curve" smooth="yes"/>
			<point x="401" y="531" type="line"/>
			<point x="536" y="531" type="line"/>
			<point x="536" y="558" type="line" smooth="yes"/>
			<point x="536" y="694"/>
			<point x="469" y="750"/>
			<point x="303" y="750" type="curve" smooth="yes"/>
			<point x="133" y="750"/>
			<point x="66" y="694"/>
			<point x="66" y="558" type="curve" smooth="yes"/>
			<point x="66" y="489" type="line" smooth="yes"/>
			<point x="66" y="393"/>
			<point x="100" y="346"/>
			<point x="215" y="345" type="curve" smooth="yes"/>
			<point x="353" y="344" type="line" smooth="yes"/>
			<point x="395" y="344"/>
			<point x="405" y="331"/>
			<point x="405" y="294" type="curve" smooth="yes"/>
			<point x="405" y="252" type="line" smooth="yes"/>
			<point x="405" y="198"/>
			<point x="389" y="185"/>
			<point x="303" y="185" type="curve" smooth="yes"/>
			<point x="217" y="185"/>
			<point x="201" y="198"/>
			<point x="201" y="252" type="curve" smooth="yes"/>
			<point x="201" y="282" type="line"/>
			<point x="66" y="282" type="line"/>
			<point x="66" y="242" type="line" smooth="yes"/>
			<point x="66" y="106"/>
			<point x="133" y="50"/>
		</contour>
		<component base="bar" xOffset="174"/>
	</outline>
</glyph>
<glyph name="ampersand" format="2">
	<advance width="611"/>
	<unicode hex="0026"/>
	<outline>
		<contour>
			<point x="267" y="0" type="curve" smooth="yes"/>
			<point x="494" y="0" type="line"/>
			<point x="494" y="597" type="line"/>
			<point x="359" y="597" type="line"/>
			<point x="359" y="125" type="line"/>
			<point x="298" y="125" type="line" smooth="yes"/>
			<point x="216" y="125"/>
			<point x="200" y="138"/>
			<point x="200" y="192" type="curve" smooth="yes"/>
			<point x="200" y="271" type="line" smooth="yes"/>
			<point x="200" y="325"/>
			<point x="216" y="338"/>
			<point x="298" y="338" type="curve" smooth="yes"/>
			<point x="571" y="338" type="line"/>
			<point x="571" y="463" type="line"/>
			<point x="298" y="463" type="line" smooth="yes"/>
			<point x="216" y="463"/>
			<point x="200" y="476"/>
			<point x="200" y="530" type="curve" smooth="yes"/>
			<point x="200" y="613" type="line" smooth="yes"/>
			<point x="200" y="667"/>
			<point x="216" y="675"/>
			<point x="298" y="675" type="curve" smooth="yes"/>
			<point x="435" y="675" type="line"/>
			<point x="435" y="800" type="line"/>
			<point x="267" y="800" type="line" smooth="yes"/>
			<point x="132" y="800"/>
			<point x="65" y="754"/>
			<point x="65" y="618" type="curve" smooth="yes"/>
			<point x="65" y="525" type="line" smooth="yes"/>
			<point x="65" y="462"/>
			<point x="95" y="427"/>
			<point x="138" y="401" type="curve"/>
			<point x="95" y="374"/>
			<point x="65" y="339"/>
			<point x="65" y="276" type="curve" smooth="yes"/>
			<point x="65" y="182" type="line" smooth="yes"/>
			<point x="65" y="46"/>
			<point x="132" y="0"/>
		</contour>
	</outline>
</glyph>
<glyph name="quotesingle" format="2">
	<advance width="200"/>
	<unicode hex="0027"/>
	<outline>
		<contour>
			<point x="59" y="493" type="line"/>
			<point x="140" y="493" type="line"/>
			<point x="165" y="800" type="line"/>
			<point x="34" y="800" type="line"/>
		</contour>
	</outline>
</glyph>
<glyph name="parenleft" format="2">
	<advance width="313"/>
	<unicode hex="0028"/>
	<outline>
		<contour>
			<point x="226" y="-131" type="curve"/>
			<point x="303" y="-87" type="line"/>
			<point x="211" y="68"/>
			<point x="164" y="236"/>
			<point x="164" y="398" type="curve" smooth="yes"/>
			<point x="164" y="560"/>
			<point x="211" y="728"/>
			<point x="303" y="883" type="curve"/>
			<point x="226" y="927" type="line"/>
			<point x="137" y="772"/>
			<point x="70" y="591"/>
			<point x="70" y="398" type="curve" smooth="yes"/>
			<point x="70" y="205"/>
			<point x="137" y="24"/>
		</contour>
	</outline>
</glyph>
<glyph name="parenright" format="2">
	<advance width="313"/>
	<unicode hex="0029"/>
	<outline>
		<contour>
			<point x="87" y="-131" type="line"/>
			<point x="176" y="24"/>
			<point x="243" y="205"/>
			<point x="243" y="398" type="curve" smooth="yes"/>
			<point x="243" y="591"/>
			<point x="176" y="772"/>
			<point x="87" y="927" type="curve"/>
			<point x="10" y="883" type="line"/>
			<point x="102" y="728"/>
			<point x="149" y="560"/>
			<point x="149" y="398" type="curve" smooth="yes"/>
			<point x="149" y="236"/>
			<point x="102" y="68"/>
			<point x="10" y="-87" type="curve"/>
		</contour>
	</outline>
</glyph>
<glyph name="asterisk" format="2">
	<advance width="421"/>
	<unicode hex="002A"/>
	<outline>
		<contour>
			<point x="171" y="562" type="line"/>
			<point x="242" y="562" type="line"/>
			<point x="242" y="622" type="line"/>
			<point x="171" y="622" type="line"/>
		</contour>
		<component base="bout_aster" xScale="0.5736" xyScale="0.8191" yScale="0.5736" yxScale="-0.8191" xOffset="551" yOffset="74"/>
		<component base="bout_aster" xScale="0.9659" xyScale="-0.2588" yScale="0.9659" yxScale="0.2588" xOffset="-161" yOffset="110"/>
		<component base="bout_aster" xScale="-0.5736" xyScale="0.8192" yScale="0.5736" yxScale="0.8192" xOffset="-122" yOffset="74"/>
		<component base="bout_aster" xScale="0" xyScale="-1" yScale="0" yxScale="1" xOffset="-370" yOffset="840"/>
		<component base="bout_aster" xScale="-0.9659" xyScale="-0.2588" yScale="0.9659" yxScale="-0.2588" xOffset="582" yOffset="110"/>
	</outline>
</glyph>
<glyph name="plus" format="2">
	<advance width="495"/>
	<unicode hex="002B"/>
	<outline>
		<contour>
			<point x="189" y="168" type="line"/>
			<point x="307" y="168" type="line"/>
			<point x="307" y="603" type="line"/>
			<point x="189" y="603" type="line"/>
		</contour>
		<contour>
			<point x="30" y="326" type="line"/>
			<point x="465" y="326" type="line"/>
			<point x="465" y="444" type="line"/>
			<point x="30" y="444" type="line"/>
		</contour>
	</outline>
</glyph>
<glyph name="comma" format="2">
	<advance width="260"/>
	<unicode hex="002C"/>
	<outline>
		<contour>
			<point x="17" y="-153" type="line"/>
			<point x="101" y="-153" type="line"/>
			<point x="228" y="164" type="line"/>
			<point x="67" y="164" type="line"/>
		</contour>
	</outline>
</glyph>
<glyph name="hyphen" format="2">
	<advance width="335"/>
	<unicode hex="002D"/>
	<outline>
		<contour>
			<point x="30" y="326" type="line"/>
			<point x="305" y="326" type="line"/>
			<point x="305" y="444" type="line"/>
			<point x="30" y="444" type="line"/>
		</contour>
	</outline>
</glyph>
<glyph name="period" format="2">
	<advance width="232"/>
	<unicode hex="002E"/>
	<outline>
		<contour>
			<point x="42" y="0" type="line"/>
			<point x="197" y="0" type="line"/>
			<point x="197" y="164" type="line"/>
			<point x="42" y="164" type="line"/>
		</contour>
	</outline>
</glyph>
<glyph name="slash" format="2">
	<advance width="358"/>
	<unicode hex="002F"/>
	<outline>
		<contour>
			<point x="5" y="0" type="line"/>
			<point x="130" y="0" type="line"/>
			<point x="353" y="800" type="line"/>
			<point x="228" y="800" type="line"/>
		</contour>
	</outline>
</glyph>
<glyph name="zero" format="2">
	<advance width="596"/>
	<unicode hex="0030"/>
	<outline>
		<contour>
			<point x="297" y="-10" type="curve" smooth="yes"/>
			<point x="463" y="-10"/>
			<point x="530" y="46"/>
			<point x="530" y="182" type="curve" smooth="yes"/>
			<point x="530" y="618" type="line" smooth="yes"/>
			<point x="530" y="754"/>
			<point x="463" y="810"/>
			<point x="297" y="810" type="curve" smooth="yes"/>
			<point x="131" y="810"/>
			<point x="64" y="754"/>
			<point x="64" y="618" type="curve" smooth="yes"/>
			<point x="64" y="182" type="line" smooth="yes"/>
			<point x="64" y="46"/>
			<point x="131" y="-10"/>
		</contour>
		<contour>
			<point x="297" y="125" type="curve" smooth="yes"/>
			<point x="215" y="125"/>
			<point x="199" y="138"/>
			<point x="199" y="192" type="curve" smooth="yes"/>
			<point x="199" y="608" type="line" smooth="yes"/>
			<point x="199" y="662"/>
			<point x="215" y="675"/>
			<point x="297" y="675" type="curve" smooth="yes"/>
			<point x="379" y="675"/>
			<point x="395" y="662"/>
			<point x="395" y="608" type="curve" smooth="yes"/>
			<point x="395" y="192" type="line" smooth="yes"/>
			<point x="395" y="138"/>
			<point x="379" y="125"/>
		</contour>
	</outline>
</glyph>
<glyph name="one" format="2">
	<advance width="336"/>
	<unicode hex="0031"/>
	<outline>
		<contour>
			<point x="121" y="0" type="line"/>
			<point x="256" y="0" type="line"/>
			<point x="256" y="800" type="line"/>
			<point x="121" y="800" type="line"/>
		</contour>
		<contour>
			<point x="22" y="670" type="line"/>
			<point x="159" y="670" type="line"/>
			<point x="159" y="800" type="line"/>
			<point x="22" y="800" type="line"/>
		</contour>
	</outline>
</glyph>
<glyph name="two" format="2">
	<advance width="575"/>
	<unicode hex="0032"/>
	<outline>
		<contour>
			<point x="42" y="0" type="line"/>
			<point x="503" y="0" type="line"/>
			<point x="503" y="130" type="line"/>
			<point x="217" y="130" type="line"/>
			<point x="403" y="330" type="line" smooth="yes"/>
			<point x="479" y="412"/>
			<point x="512" y="463"/>
			<point x="512" y="552" type="curve" smooth="yes"/>
			<point x="512" y="618" type="line" smooth="yes"/>
			<point x="512" y="754"/>
			<point x="445" y="810"/>
			<point x="275" y="810" type="curve" smooth="yes"/>
			<point x="109" y="810"/>
			<point x="42" y="754"/>
			<point x="42" y="618" type="curve" smooth="yes"/>
			<point x="42" y="538" type="line"/>
			<point x="177" y="538" type="line"/>
			<point x="177" y="608" type="line" smooth="yes"/>
			<point x="177" y="662"/>
			<point x="193" y="675"/>
			<point x="275" y="675" type="curve" smooth="yes"/>
			<point x="361" y="675"/>
			<point x="377" y="662"/>
			<point x="377" y="608" type="curve" smooth="yes"/>
			<point x="377" y="562" type="line" smooth="yes"/>
			<point x="377" y="522"/>
			<point x="360" y="487"/>
			<point x="326" y="449" type="curve" smooth="yes"/>
			<point x="42" y="135" type="line"/>
		</contour>
	</outline>
</glyph>
<glyph name="three" format="2">
	<advance width="556"/>
	<unicode hex="0033"/>
	<outline>
		<contour>
			<point x="262" y="-10" type="curve" smooth="yes"/>
			<point x="432" y="-10"/>
			<point x="499" y="46"/>
			<point x="499" y="182" type="curve" smooth="yes"/>
			<point x="499" y="324" type="line" smooth="yes"/>
			<point x="499" y="421"/>
			<point x="435" y="462"/>
			<point x="345" y="465" type="curve"/>
			<point x="491" y="716" type="line"/>
			<point x="491" y="800" type="line"/>
			<point x="49" y="800" type="line"/>
			<point x="49" y="665" type="line"/>
			<point x="325" y="665" type="line"/>
			<point x="165" y="391" type="line"/>
			<point x="241" y="353" type="line"/>
			<point x="254" y="365"/>
			<point x="260" y="368"/>
			<point x="280" y="368" type="curve" smooth="yes"/>
			<point x="346" y="368"/>
			<point x="364" y="348"/>
			<point x="364" y="294" type="curve" smooth="yes"/>
			<point x="364" y="192" type="line" smooth="yes"/>
			<point x="364" y="138"/>
			<point x="348" y="125"/>
			<point x="262" y="125" type="curve" smooth="yes"/>
			<point x="180" y="125"/>
			<point x="164" y="138"/>
			<point x="164" y="192" type="curve" smooth="yes"/>
			<point x="164" y="245" type="line"/>
			<point x="29" y="245" type="line"/>
			<point x="29" y="182" type="line" smooth="yes"/>
			<point x="29" y="46"/>
			<point x="96" y="-10"/>
		</contour>
	</outline>
</glyph>
<glyph name="four" format="2">
	<advance width="589"/>
	<unicode hex="0034"/>
	<outline>
		<contour>
			<point x="29" y="305" type="line"/>
			<point x="164" y="305" type="line"/>
			<point x="369" y="800" type="line"/>
			<point x="234" y="800" type="line"/>
		</contour>
		<contour>
			<point x="29" y="175" type="line"/>
			<point x="574" y="175" type="line"/>
			<point x="574" y="305" type="line"/>
			<point x="29" y="305" type="line"/>
		</contour>
		<contour>
			<point x="321" y="0" type="line"/>
			<point x="456" y="0" type="line"/>
			<point x="456" y="800" type="line"/>
			<point x="321" y="800" type="line"/>
		</contour>
	</outline>
</glyph>
<glyph name="five" format="2">
	<advance width="571"/>
	<unicode hex="0035"/>
	<outline>
		<contour>
			<point x="283" y="-10" type="curve" smooth="yes"/>
			<point x="453" y="-10"/>
			<point x="520" y="46"/>
			<point x="520" y="182" type="curve" smooth="yes"/>
			<point x="520" y="321" type="line" smooth="yes"/>
			<point x="520" y="418"/>
			<point x="463" y="482"/>
			<point x="306" y="482" type="curve" smooth="yes"/>
			<point x="269" y="482"/>
			<point x="237" y="478"/>
			<point x="207" y="469" type="curve"/>
			<point x="227" y="670" type="line"/>
			<point x="511" y="670" type="line"/>
			<point x="511" y="800" type="line"/>
			<point x="107" y="800" type="line"/>
			<point x="70" y="355" type="line"/>
			<point x="188" y="326" type="line"/>
			<point x="213" y="352"/>
			<point x="232" y="364"/>
			<point x="283" y="364" type="curve" smooth="yes"/>
			<point x="369" y="364"/>
			<point x="385" y="344"/>
			<point x="385" y="290" type="curve" smooth="yes"/>
			<point x="385" y="192" type="line" smooth="yes"/>
			<point x="385" y="138"/>
			<point x="369" y="125"/>
			<point x="283" y="125" type="curve" smooth="yes"/>
			<point x="201" y="125"/>
			<point x="185" y="139"/>
			<point x="185" y="192" type="curve" smooth="yes"/>
			<point x="185" y="237" type="line"/>
			<point x="50" y="237" type="line"/>
			<point x="50" y="182" type="line" smooth="yes"/>
			<point x="50" y="46"/>
			<point x="117" y="-10"/>
		</contour>
	</outline>
</glyph>
<glyph name="six" format="2">
	<advance width="604"/>
	<unicode hex="0036"/>
	<outline>
		<contour>
			<point x="302" y="-10" type="curve" smooth="yes"/>
			<point x="472" y="-10"/>
			<point x="539" y="46"/>
			<point x="539" y="182" type="curve" smooth="yes"/>
			<point x="539" y="276" type="line" smooth="yes"/>
			<point x="539" y="412"/>
			<point x="472" y="468"/>
			<point x="320" y="468" type="curve" smooth="yes"/>
			<point x="263" y="468"/>
			<point x="229" y="460"/>
			<point x="200" y="447" type="curve"/>
			<point x="200" y="613" type="line" smooth="yes"/>
			<point x="200" y="667"/>
			<point x="216" y="680"/>
			<point x="302" y="680" type="curve" smooth="yes"/>
			<point x="388" y="680"/>
			<point x="404" y="667"/>
			<point x="404" y="613" type="curve" smooth="yes"/>
			<point x="404" y="544" type="line"/>
			<point x="539" y="544" type="line"/>
			<point x="539" y="618" type="line" smooth="yes"/>
			<point x="539" y="754"/>
			<point x="472" y="810"/>
			<point x="302" y="810" type="curve" smooth="yes"/>
			<point x="132" y="810"/>
			<point x="65" y="754"/>
			<point x="65" y="618" type="curve" smooth="yes"/>
			<point x="65" y="182" type="line" smooth="yes"/>
			<point x="65" y="46"/>
			<point x="132" y="-10"/>
		</contour>
		<contour>
			<point x="302" y="120" type="curve" smooth="yes"/>
			<point x="216" y="120"/>
			<point x="200" y="133"/>
			<point x="200" y="187" type="curve" smooth="yes"/>
			<point x="200" y="271" type="line" smooth="yes"/>
			<point x="200" y="325"/>
			<point x="216" y="338"/>
			<point x="302" y="338" type="curve" smooth="yes"/>
			<point x="388" y="338"/>
			<point x="404" y="325"/>
			<point x="404" y="271" type="curve" smooth="yes"/>
			<point x="404" y="187" type="line" smooth="yes"/>
			<point x="404" y="133"/>
			<point x="388" y="120"/>
		</contour>
	</outline>
</glyph>
<glyph name="seven" format="2">
	<advance width="497"/>
	<unicode hex="0037"/>
	<outline>
		<contour>
			<point x="81" y="0" type="line"/>
			<point x="235" y="0" type="line"/>
			<point x="464" y="670" type="line"/>
			<point x="464" y="800" type="line"/>
			<point x="31" y="800" type="line"/>
			<point x="31" y="670" type="line"/>
			<point x="312" y="670" type="line"/>
		</contour>
	</outline>
</glyph>
<glyph name="eight" format="2">
	<advance width="600"/>
	<unicode hex="0038"/>
	<outline>
		<contour>
			<point x="298" y="-10" type="curve" smooth="yes"/>
			<point x="464" y="-10"/>
			<point x="531" y="46"/>
			<point x="531" y="182" type="curve" smooth="yes"/>
			<point x="531" y="276" type="line" smooth="yes"/>
			<point x="531" y="339"/>
			<point x="501" y="374"/>
			<point x="458" y="401" type="curve"/>
			<point x="501" y="427"/>
			<point x="531" y="462"/>
			<point x="531" y="525" type="curve" smooth="yes"/>
			<point x="531" y="618" type="line" smooth="yes"/>
			<point x="531" y="754"/>
			<point x="464" y="810"/>
			<point x="298" y="810" type="curve" smooth="yes"/>
			<point x="132" y="810"/>
			<point x="65" y="754"/>
			<point x="65" y="618" type="curve" smooth="yes"/>
			<point x="65" y="525" type="line" smooth="yes"/>
			<point x="65" y="462"/>
			<point x="95" y="427"/>
			<point x="138" y="401" type="curve"/>
			<point x="95" y="374"/>
			<point x="65" y="339"/>
			<point x="65" y="276" type="curve" smooth="yes"/>
			<point x="65" y="182" type="line" smooth="yes"/>
			<point x="65" y="46"/>
			<point x="132" y="-10"/>
		</contour>
		<contour>
			<point x="298" y="120" type="curve" smooth="yes"/>
			<point x="216" y="120"/>
			<point x="200" y="133"/>
			<point x="200" y="187" type="curve" smooth="yes"/>
			<point x="200" y="271" type="line" smooth="yes"/>
			<point x="200" y="325"/>
			<point x="216" y="338"/>
			<point x="298" y="338" type="curve" smooth="yes"/>
			<point x="380" y="338"/>
			<point x="396" y="325"/>
			<point x="396" y="271" type="curve" smooth="yes"/>
			<point x="396" y="187" type="line" smooth="yes"/>
			<point x="396" y="133"/>
			<point x="380" y="120"/>
		</contour>
		<contour>
			<point x="298" y="463" type="curve" smooth="yes"/>
			<point x="216" y="463"/>
			<point x="200" y="476"/>
			<point x="200" y="530" type="curve" smooth="yes"/>
			<point x="200" y="613" type="line" smooth="yes"/>
			<point x="200" y="667"/>
			<point x="216" y="680"/>
			<point x="298" y="680" type="curve" smooth="yes"/>
			<point x="380" y="680"/>
			<point x="396" y="667"/>
			<point x="396" y="613" type="curve" smooth="yes"/>
			<point x="396" y="530" type="line" smooth="yes"/>
			<point x="396" y="476"/>
			<point x="380" y="463"/>
		</contour>
	</outline>
</glyph>
<glyph name="nine" format="2">
	<advance width="600"/>
	<unicode hex="0039"/>
	<outline>
		<contour>
			<point x="302" y="-10" type="curve" smooth="yes"/>
			<point x="472" y="-10"/>
			<point x="539" y="46"/>
			<point x="539" y="182" type="curve" smooth="yes"/>
			<point x="539" y="618" type="line" smooth="yes"/>
			<point x="539" y="754"/>
			<point x="472" y="810"/>
			<point x="302" y="810" type="curve" smooth="yes"/>
			<point x="132" y="810"/>
			<point x="65" y="754"/>
			<point x="65" y="618" type="curve" smooth="yes"/>
			<point x="65" y="503" type="line" smooth="yes"/>
			<point x="65" y="367"/>
			<point x="132" y="311"/>
			<point x="284" y="311" type="curve" smooth="yes"/>
			<point x="341" y="311"/>
			<point x="375" y="319"/>
			<point x="404" y="332" type="curve"/>
			<point x="404" y="187" type="line" smooth="yes"/>
			<point x="404" y="133"/>
			<point x="388" y="120"/>
			<point x="302" y="120" type="curve" smooth="yes"/>
			<point x="216" y="120"/>
			<point x="200" y="133"/>
			<point x="200" y="187" type="curve" smooth="yes"/>
			<point x="200" y="226" type="line"/>
			<point x="65" y="226" type="line"/>
			<point x="65" y="182" type="line" smooth="yes"/>
			<point x="65" y="46"/>
			<point x="132" y="-10"/>
		</contour>
		<contour>
			<point x="302" y="441" type="curve" smooth="yes"/>
			<point x="216" y="441"/>
			<point x="200" y="454"/>
			<point x="200" y="508" type="curve" smooth="yes"/>
			<point x="200" y="613" type="line" smooth="yes"/>
			<point x="200" y="667"/>
			<point x="216" y="680"/>
			<point x="302" y="680" type="curve" smooth="yes"/>
			<point x="388" y="680"/>
			<point x="404" y="667"/>
			<point x="404" y="613" type="curve" smooth="yes"/>
			<point x="404" y="508" type="line" smooth="yes"/>
			<point x="404" y="454"/>
			<point x="388" y="441"/>
		</contour>
	</outline>
</glyph>
<glyph name="less" format="2">
	<advance width="534"/>
	<unicode hex="003C"/>
	<outline>
		<contour>
			<point x="484" y="143" type="line"/>
			<point x="484" y="280" type="line"/>
			<point x="191" y="416" type="line"/>
			<point x="484" y="552" type="line"/>
			<point x="484" y="689" type="line"/>
			<point x="45" y="477" type="line"/>
			<point x="45" y="355" type="line"/>
		</contour>
	</outline>
</glyph>
<glyph name="equal" format="2">
	<advance width="465"/>
	<unicode hex="003D"/>
	<outline>
		<contour>
			<point x="30" y="416" type="line"/>
			<point x="435" y="416" type="line"/>
			<point x="435" y="534" type="line"/>
			<point x="30" y="534" type="line"/>
		</contour>
		<contour>
			<point x="30" y="216" type="line"/>
			<point x="435" y="216" type="line"/>
			<point x="435" y="334" type="line"/>
			<point x="30" y="334" type="line"/>
		</contour>
	</outline>
</glyph>
<glyph name="question" format="2">
	<advance width="554"/>
	<unicode hex="003F"/>
	<outline>
		<contour>
			<point x="183" y="250" type="line"/>
			<point x="328" y="250" type="line"/>
			<point x="328" y="295" type="line" smooth="yes"/>
			<point x="328" y="318"/>
			<point x="341" y="337"/>
			<point x="366" y="357" type="curve" smooth="yes"/>
			<point x="437" y="415" type="line" smooth="yes"/>
			<point x="481" y="451"/>
			<point x="512" y="506"/>
			<point x="512" y="575" type="curve" smooth="yes"/>
			<point x="512" y="618" type="line" smooth="yes"/>
			<point x="512" y="754"/>
			<point x="445" y="810"/>
			<point x="275" y="810" type="curve" smooth="yes"/>
			<point x="109" y="810"/>
			<point x="42" y="754"/>
			<point x="42" y="618" type="curve" smooth="yes"/>
			<point x="42" y="550" type="line"/>
			<point x="177" y="550" type="line"/>
			<point x="177" y="608" type="line" smooth="yes"/>
			<point x="177" y="662"/>
			<point x="193" y="675"/>
			<point x="275" y="675" type="curve" smooth="yes"/>
			<point x="361" y="675"/>
			<point x="377" y="662"/>
			<point x="377" y="608" type="curve" smooth="yes"/>
			<point x="377" y="583" type="line" smooth="yes"/>
			<point x="377" y="542"/>
			<point x="367" y="513"/>
			<point x="337" y="489" type="curve" smooth="yes"/>
			<point x="231" y="405" type="line" smooth="yes"/>
			<point x="195" y="376"/>
			<point x="183" y="344"/>
			<point x="183" y="304" type="curve" smooth="yes"/>
		</contour>
		<contour>
			<point x="178" y="0" type="line"/>
			<point x="333" y="0" type="line"/>
			<point x="333" y="164" type="line"/>
			<point x="178" y="164" type="line"/>
		</contour>
	</outline>
</glyph>
<glyph name="at" format="2">
	<advance width="689"/>
	<unicode hex="0040"/>
	<outline>
		<contour>
			<point x="302" y="0" type="curve" smooth="yes"/>
			<point x="628" y="0" type="line"/>
			<point x="628" y="135" type="line"/>
			<point x="285" y="135" type="line" smooth="yes"/>
			<point x="226" y="135"/>
			<point x="200" y="158"/>
			<point x="200" y="212" type="curve" smooth="yes"/>
			<point x="200" y="608" type="line" smooth="yes"/>
			<point x="200" y="662"/>
			<point x="206" y="675"/>
			<point x="352" y="675" type="curve" smooth="yes"/>
			<point x="498" y="675"/>
			<point x="504" y="662"/>
			<point x="504" y="608" type="curve" smooth="yes"/>
			<point x="504" y="399" type="line" smooth="yes"/>
			<point x="504" y="353"/>
			<point x="493" y="344"/>
			<point x="463" y="344" type="curve" smooth="yes"/>
			<point x="425" y="344"/>
			<point x="418" y="353"/>
			<point x="418" y="399" type="curve" smooth="yes"/>
			<point x="418" y="590" type="line"/>
			<point x="283" y="590" type="line"/>
			<point x="283" y="337" type="line" smooth="yes"/>
			<point x="283" y="236"/>
			<point x="331" y="208"/>
			<point x="463" y="208" type="curve" smooth="yes"/>
			<point x="581" y="208"/>
			<point x="639" y="243"/>
			<point x="639" y="337" type="curve" smooth="yes"/>
			<point x="639" y="618" type="line" smooth="yes"/>
			<point x="639" y="754"/>
			<point x="582" y="810"/>
			<point x="352" y="810" type="curve" smooth="yes"/>
			<point x="122" y="810"/>
			<point x="65" y="754"/>
			<point x="65" y="618" type="curve" smooth="yes"/>
			<point x="65" y="192" type="line" smooth="yes"/>
			<point x="65" y="56"/>
			<point x="122" y="0"/>
		</contour>
	</outline>
</glyph>
<glyph name="A" format="2">
	<advance width="510"/>
	<unicode hex="0041"/>
	<unicode hex="0061"/>
	<anchor x="255" y="800" name="top"/>
	<outline>
		<contour>
			<point x="-6" y="0" type="line"/>
			<point x="122" y="0" type="line"/>
			<point x="255" y="537" type="line"/>
			<point x="388" y="0" type="line"/>
			<point x="516" y="0" type="line"/>
			<point x="317" y="800" type="line"/>
			<point x="193" y="800" type="line"/>
		</contour>
		<contour>
			<point x="139" y="151" type="line"/>
			<point x="425" y="151" type="line"/>
			<point x="425" y="267" type="line"/>
			<point x="139" y="267" type="line"/>
		</contour>
	</outline>
</glyph>
<glyph name="B" format="2">
	<advance width="619"/>
	<unicode hex="0042"/>
	<unicode hex="0062"/>
	<outline>
		<contour>
			<point x="80" y="0" type="line"/>
			<point x="371" y="0" type="line" smooth="yes"/>
			<point x="491" y="0"/>
			<point x="554" y="52"/>
			<point x="554" y="179" type="curve" smooth="yes"/>
			<point x="554" y="316" type="line" smooth="yes"/>
			<point x="554" y="353"/>
			<point x="537" y="389"/>
			<point x="506" y="404" type="curve" smooth="yes"/>
			<point x="462" y="426" type="line"/>
			<point x="518" y="438"/>
			<point x="554" y="476"/>
			<point x="554" y="538" type="curve" smooth="yes"/>
			<point x="554" y="649" type="line" smooth="yes"/>
			<point x="554" y="756"/>
			<point x="510" y="800"/>
			<point x="399" y="800" type="curve" smooth="yes"/>
			<point x="80" y="800" type="line"/>
		</contour>
		<contour>
			<point x="215" y="130" type="line"/>
			<point x="215" y="354" type="line"/>
			<point x="355" y="354" type="line" smooth="yes"/>
			<point x="406" y="354"/>
			<point x="419" y="338"/>
			<point x="419" y="293" type="curve" smooth="yes"/>
			<point x="419" y="193" type="line" smooth="yes"/>
			<point x="419" y="147"/>
			<point x="401" y="130"/>
			<point x="356" y="130" type="curve" smooth="yes"/>
		</contour>
		<contour>
			<point x="215" y="477" type="line"/>
			<point x="215" y="670" type="line"/>
			<point x="355" y="670" type="line" smooth="yes"/>
			<point x="406" y="670"/>
			<point x="419" y="654"/>
			<point x="419" y="609" type="curve" smooth="yes"/>
			<point x="419" y="540" type="line" smooth="yes"/>
			<point x="419" y="495"/>
			<point x="401" y="477"/>
			<point x="353" y="477" type="curve" smooth="yes"/>
		</contour>
	</outline>
</glyph>
<glyph name="D" format="2">
	<advance width="619"/>
	<unicode hex="0044"/>
	<unicode hex="0064"/>
	<outline>
		<contour>
			<point x="80" y="0" type="line"/>
			<point x="357" y="0" type="line" smooth="yes"/>
			<point x="477" y="0"/>
			<point x="554" y="56"/>
			<point x="554" y="192" type="curve" smooth="yes"/>
			<point x="554" y="608" type="line" smooth="yes"/>
			<point x="554" y="744"/>
			<point x="477" y="800"/>
			<point x="357" y="800" type="curve" smooth="yes"/>
			<point x="80" y="800" type="line"/>
		</contour>
		<contour>
			<point x="215" y="135" type="line"/>
			<point x="215" y="665" type="line"/>
			<point x="326" y="665" type="line" smooth="yes"/>
			<point x="392" y="665"/>
			<point x="419" y="645"/>
			<point x="419" y="588" type="curve" smooth="yes"/>
			<point x="419" y="212" type="line" smooth="yes"/>
			<point x="419" y="155"/>
			<point x="392" y="135"/>
			<point x="326" y="135" type="curve" smooth="yes"/>
		</contour>
	</outline>
</glyph>
<glyph name="E" format="2">
	<advance width="528"/>
	<unicode hex="0045"/>
	<unicode hex="0065"/>
	<anchor x="286" y="800" name="top"/>
	<outline>
		<contour>
			<point x="80" y="0" type="line"/>
			<point x="493" y="0" type="line"/>
			<point x="493" y="130" type="line"/>
			<point x="215" y="130" type="line"/>
			<point x="215" y="339" type="line"/>
			<point x="422" y="339" type="line"/>
			<point x="422" y="469" type="line"/>
			<point x="215" y="469" type="line"/>
			<point x="215" y="670" type="line"/>
			<point x="493" y="670" type="line"/>
			<point x="493" y="800" type="line"/>
			<point x="80" y="800" type="line"/>
		</contour>
	</outline>
</glyph>
<glyph name="G" format="2">
	<advance width="604"/>
	<unicode hex="0047"/>
	<unicode hex="0067"/>
	<outline>
		<contour>
			<point x="302" y="-10" type="curve" smooth="yes"/>
			<point x="482" y="-10"/>
			<point x="539" y="46"/>
			<point x="539" y="182" type="curve" smooth="yes"/>
			<point x="539" y="441" type="line"/>
			<point x="235" y="441" type="line"/>
			<point x="235" y="311" type="line"/>
			<point x="404" y="311" type="line"/>
			<point x="404" y="192" type="line" smooth="yes"/>
			<point x="404" y="138"/>
			<point x="398" y="125"/>
			<point x="302" y="125" type="curve" smooth="yes"/>
			<point x="206" y="125"/>
			<point x="200" y="138"/>
			<point x="200" y="192" type="curve" smooth="yes"/>
			<point x="200" y="608" type="line" smooth="yes"/>
			<point x="200" y="662"/>
			<point x="206" y="675"/>
			<point x="302" y="675" type="curve" smooth="yes"/>
			<point x="398" y="675"/>
			<point x="404" y="662"/>
			<point x="404" y="608" type="curve" smooth="yes"/>
			<point x="404" y="534" type="line"/>
			<point x="539" y="534" type="line"/>
			<point x="539" y="618" type="line" smooth="yes"/>
			<point x="539" y="754"/>
			<point x="482" y="810"/>
			<point x="302" y="810" type="curve" smooth="yes"/>
			<point x="122" y="810"/>
			<point x="65" y="754"/>
			<point x="65" y="618" type="curve" smooth="yes"/>
			<point x="65" y="182" type="line" smooth="yes"/>
			<point x="65" y="46"/>
			<point x="122" y="-10"/>
		</contour>
	</outline>
</glyph>
<glyph name="H" format="2">
	<advance width="634"/>
	<unicode hex="0048"/>
	<unicode hex="0068"/>
	<outline>
		<contour>
			<point x="80" y="0" type="line"/>
			<point x="215" y="0" type="line"/>
			<point x="215" y="334" type="line"/>
			<point x="419" y="334" type="line"/>
			<point x="419" y="0" type="line"/>
			<point x="554" y="0" type="line"/>
			<point x="554" y="800" type="line"/>
			<point x="419" y="800" type="line"/>
			<point x="419" y="464" type="line"/>
			<point x="215" y="464" type="line"/>
			<point x="215" y="800" type="line"/>
			<point x="80" y="800" type="line"/>
		</contour>
	</outline>
</glyph>
<glyph name="I" format="2">
	<advance width="295"/>
	<unicode hex="0049"/>
	<unicode hex="0069"/>
	<anchor x="152" y="800" name="top"/>
	<outline>
		<contour>
			<point x="80" y="0" type="line"/>
			<point x="215" y="0" type="line"/>
			<point x="215" y="800" type="line"/>
			<point x="80" y="800" type="line"/>
		</contour>
	</outline>
</glyph>
<glyph name="J" format="2">
	<advance width="499"/>
	<unicode hex="004A"/>
	<unicode hex="006A"/>
	<outline>
		<contour>
			<point x="212" y="-10" type="curve" smooth="yes"/>
			<point x="372" y="-10"/>
			<point x="424" y="46"/>
			<point x="424" y="182" type="curve" smooth="yes"/>
			<point x="424" y="800" type="line"/>
			<point x="119" y="800" type="line"/>
			<point x="119" y="673" type="line"/>
			<point x="289" y="673" type="line"/>
			<point x="289" y="192" type="line" smooth="yes"/>
			<point x="289" y="138"/>
			<point x="276" y="125"/>
			<point x="212" y="125" type="curve" smooth="yes"/>
			<point x="151" y="125"/>
			<point x="135" y="138"/>
			<point x="135" y="192" type="curve" smooth="yes"/>
			<point x="135" y="302" type="line"/>
			<point x="0" y="302" type="line"/>
			<point x="0" y="182" type="line" smooth="yes"/>
			<point x="0" y="46"/>
			<point x="67" y="-10"/>
		</contour>
	</outline>
</glyph>
<glyph name="K" format="2">
	<advance width="579"/>
	<unicode hex="004B"/>
	<unicode hex="006B"/>
	<outline>
		<contour>
			<point x="419" y="0" type="line"/>
			<point x="584" y="0" type="line"/>
			<point x="317" y="454" type="line"/>
			<point x="160" y="454" type="line"/>
		</contour>
		<contour>
			<point x="80" y="0" type="line"/>
			<point x="215" y="0" type="line"/>
			<point x="215" y="800" type="line"/>
			<point x="80" y="800" type="line"/>
		</contour>
		<contour>
			<point x="124" y="379" type="line"/>
			<point x="269" y="379" type="line"/>
			<point x="579" y="800" type="line"/>
			<point x="429" y="800" type="line"/>
		</contour>
	</outline>
</glyph>
<glyph name="L" format="2">
	<advance width="418"/>
	<unicode hex="004C"/>
	<unicode hex="006C"/>
	<outline>
		<contour>
			<point x="80" y="0" type="line"/>
			<point x="433" y="0" type="line"/>
			<point x="433" y="130" type="line"/>
			<point x="215" y="130" type="line"/>
			<point x="215" y="800" type="line"/>
			<point x="80" y="800" type="line"/>
		</contour>
	</outline>
</glyph>
<glyph name="M" format="2">
	<advance width="754"/>
	<unicode hex="004D"/>
	<unicode hex="006D"/>
	<outline>
		<contour>
			<point x="80" y="0" type="line"/>
			<point x="215" y="0" type="line"/>
			<point x="215" y="513" type="line"/>
			<point x="357" y="0" type="line"/>
			<point x="397" y="0" type="line"/>
			<point x="539" y="513" type="line"/>
			<point x="539" y="0" type="line"/>
			<point x="674" y="0" type="line"/>
			<point x="674" y="800" type="line"/>
			<point x="473" y="800" type="line"/>
			<point x="377" y="441" type="line"/>
			<point x="291" y="800" type="line"/>
			<point x="80" y="800" type="line"/>
		</contour>
	</outline>
</glyph>
<glyph name="N" format="2">
	<advance width="634"/>
	<unicode hex="004E"/>
	<unicode hex="006E"/>
	<anchor x="324" y="800" name="top"/>
	<outline>
		<contour>
			<point x="80" y="0" type="line"/>
			<point x="205" y="0" type="line"/>
			<point x="205" y="512" type="line"/>
			<point x="409" y="0" type="line"/>
			<point x="554" y="0" type="line"/>
			<point x="554" y="800" type="line"/>
			<point x="429" y="800" type="line"/>
			<point x="429" y="360" type="line"/>
			<point x="265" y="800" type="line"/>
			<point x="80" y="800" type="line"/>
		</contour>
	</outline>
</glyph>
<glyph name="P" format="2">
	<advance width="594"/>
	<unicode hex="0050"/>
	<unicode hex="0070"/>
	<outline>
		<contour>
			<point x="80" y="0" type="line"/>
			<point x="215" y="0" type="line"/>
			<point x="215" y="309" type="line"/>
			<point x="399" y="309" type="line" smooth="yes"/>
			<point x="495" y="309"/>
			<point x="554" y="367"/>
			<point x="554" y="472" type="curve" smooth="yes"/>
			<point x="554" y="649" type="line" smooth="yes"/>
			<point x="554" y="756"/>
			<point x="510" y="800"/>
			<point x="399" y="800" type="curve" smooth="yes"/>
			<point x="80" y="800" type="line"/>
		</contour>
		<contour>
			<point x="215" y="439" type="line"/>
			<point x="215" y="670" type="line"/>
			<point x="355" y="670" type="line" smooth="yes"/>
			<point x="406" y="670"/>
			<point x="419" y="654"/>
			<point x="419" y="609" type="curve" smooth="yes"/>
			<point x="419" y="502" type="line" smooth="yes"/>
			<point x="419" y="457"/>
			<point x="401" y="439"/>
			<point x="353" y="439" type="curve" smooth="yes"/>
		</contour>
	</outline>
</glyph>
<glyph name="Q" format="2">
	<advance width="604"/>
	<unicode hex="0051"/>
	<unicode hex="0071"/>
	<outline>
		<contour>
			<point x="302" y="-10" type="curve" smooth="yes"/>
			<point x="472" y="-10"/>
			<point x="539" y="46"/>
			<point x="539" y="182" type="curve" smooth="yes"/>
			<point x="539" y="618" type="line" smooth="yes"/>
			<point x="539" y="754"/>
			<point x="472" y="810"/>
			<point x="302" y="810" type="curve" smooth="yes"/>
			<point x="132" y="810"/>
			<point x="65" y="754"/>
			<point x="65" y="618" type="curve" smooth="yes"/>
			<point x="65" y="182" type="line" smooth="yes"/>
			<point x="65" y="46"/>
			<point x="132" y="-10"/>
		</contour>
		<contour>
			<point x="272" y="-105" type="line"/>
			<point x="413" y="-105" type="line"/>
			<point x="359" y="17" type="line"/>
			<point x="225" y="17" type="line"/>
		</contour>
		<contour>
			<point x="302" y="125" type="curve" smooth="yes"/>
			<point x="216" y="125"/>
			<point x="200" y="138"/>
			<point x="200" y="192" type="curve" smooth="yes"/>
			<point x="200" y="608" type="line" smooth="yes"/>
			<point x="200" y="662"/>
			<point x="216" y="675"/>
			<point x="302" y="675" type="curve" smooth="yes"/>
			<point x="388" y="675"/>
			<point x="404" y="662"/>
			<point x="404" y="608" type="curve" smooth="yes"/>
			<point x="404" y="192" type="line" smooth="yes"/>
			<point x="404" y="138"/>
			<point x="388" y="125"/>
		</contour>
	</outline>
</glyph>
<glyph name="R" format="2">
	<advance width="624"/>
	<unicode hex="0052"/>
	<unicode hex="0072"/>
	<outline>
		<contour>
			<point x="80" y="0" type="line"/>
			<point x="215" y="0" type="line"/>
			<point x="215" y="316" type="line"/>
			<point x="355" y="316" type="line" smooth="yes"/>
			<point x="406" y="316"/>
			<point x="419" y="300"/>
			<point x="419" y="255" type="curve" smooth="yes"/>
			<point x="419" y="0" type="line"/>
			<point x="554" y="0" type="line"/>
			<point x="554" y="278" type="line" smooth="yes"/>
			<point x="554" y="337"/>
			<point x="516" y="371"/>
			<point x="462" y="387" type="curve"/>
			<point x="518" y="399"/>
			<point x="554" y="437"/>
			<point x="554" y="499" type="curve" smooth="yes"/>
			<point x="554" y="649" type="line" smooth="yes"/>
			<point x="554" y="756"/>
			<point x="510" y="800"/>
			<point x="399" y="800" type="curve" smooth="yes"/>
			<point x="80" y="800" type="line"/>
		</contour>
		<contour>
			<point x="215" y="439" type="line"/>
			<point x="215" y="670" type="line"/>
			<point x="355" y="670" type="line" smooth="yes"/>
			<point x="406" y="670"/>
			<point x="419" y="654"/>
			<point x="419" y="609" type="curve" smooth="yes"/>
			<point x="419" y="502" type="line" smooth="yes"/>
			<point x="419" y="457"/>
			<point x="401" y="439"/>
			<point x="353" y="439" type="curve" smooth="yes"/>
		</contour>
	</outline>
</glyph>
<glyph name="S" format="2">
	<advance width="604"/>
	<unicode hex="0053"/>
	<unicode hex="0073"/>
	<outline>
		<contour>
			<point x="302" y="-10" type="curve" smooth="yes"/>
			<point x="472" y="-10"/>
			<point x="539" y="46"/>
			<point x="539" y="182" type="curve" smooth="yes"/>
			<point x="539" y="370" type="line" smooth="yes"/>
			<point x="539" y="445"/>
			<point x="492" y="470"/>
			<point x="404" y="471" type="curve" smooth="yes"/>
			<point x="243" y="472" type="line" smooth="yes"/>
			<point x="210" y="472"/>
			<point x="200" y="477"/>
			<point x="200" y="515" type="curve" smooth="yes"/>
			<point x="200" y="608" type="line" smooth="yes"/>
			<point x="200" y="662"/>
			<point x="216" y="675"/>
			<point x="302" y="675" type="curve" smooth="yes"/>
			<point x="384" y="675"/>
			<point x="400" y="662"/>
			<point x="400" y="608" type="curve" smooth="yes"/>
			<point x="400" y="561" type="line"/>
			<point x="535" y="561" type="line"/>
			<point x="535" y="618" type="line" smooth="yes"/>
			<point x="535" y="754"/>
			<point x="468" y="810"/>
			<point x="302" y="810" type="curve" smooth="yes"/>
			<point x="132" y="810"/>
			<point x="65" y="754"/>
			<point x="65" y="618" type="curve" smooth="yes"/>
			<point x="65" y="489" type="line" smooth="yes"/>
			<point x="65" y="393"/>
			<point x="99" y="346"/>
			<point x="214" y="345" type="curve" smooth="yes"/>
			<point x="352" y="344" type="line" smooth="yes"/>
			<point x="394" y="344"/>
			<point x="404" y="331"/>
			<point x="404" y="294" type="curve" smooth="yes"/>
			<point x="404" y="192" type="line" smooth="yes"/>
			<point x="404" y="138"/>
			<point x="388" y="125"/>
			<point x="302" y="125" type="curve" smooth="yes"/>
			<point x="216" y="125"/>
			<point x="200" y="138"/>
			<point x="200" y="192" type="curve" smooth="yes"/>
			<point x="200" y="252" type="line"/>
			<point x="65" y="252" type="line"/>
			<point x="65" y="182" type="line" smooth="yes"/>
			<point x="65" y="46"/>
			<point x="132" y="-10"/>
		</contour>
	</outline>
</glyph>
<glyph name="T" format="2">
	<advance width="469"/>
	<unicode hex="0054"/>
	<unicode hex="0074"/>
	<outline>
		<contour>
			<point x="167" y="0" type="line"/>
			<point x="302" y="0" type="line"/>
			<point x="302" y="670" type="line"/>
			<point x="469" y="670" type="line"/>
			<point x="469" y="800" type="line"/>
			<point x="0" y="800" type="line"/>
			<point x="0" y="670" type="line"/>
			<point x="167" y="670" type="line"/>
		</contour>
	</outline>
</glyph>
<glyph name="U" format="2">
	<advance width="606"/>
	<unicode hex="0055"/>
	<unicode hex="0075"/>
	<anchor x="303" y="800" name="top"/>
	<outline>
		<contour>
			<point x="303" y="-10" type="curve" smooth="yes"/>
			<point x="468" y="-10"/>
			<point x="535" y="61"/>
			<point x="535" y="200" type="curve" smooth="yes"/>
			<point x="535" y="800" type="line"/>
			<point x="400" y="800" type="line"/>
			<point x="400" y="209" type="line" smooth="yes"/>
			<point x="400" y="152"/>
			<point x="384" y="123"/>
			<point x="303" y="123" type="curve" smooth="yes"/>
			<point x="222" y="123"/>
			<point x="206" y="152"/>
			<point x="206" y="209" type="curve" smooth="yes"/>
			<point x="206" y="800" type="line"/>
			<point x="71" y="800" type="line"/>
			<point x="71" y="200" type="line" smooth="yes"/>
			<point x="71" y="61"/>
			<point x="138" y="-10"/>
		</contour>
	</outline>
</glyph>
<glyph name="V" format="2">
	<advance width="510"/>
	<unicode hex="0056"/>
	<unicode hex="0076"/>
	<outline>
		<contour>
			<point x="203" y="0" type="line"/>
			<point x="307" y="0" type="line"/>
			<point x="516" y="800" type="line"/>
			<point x="388" y="800" type="line"/>
			<point x="255" y="271" type="line"/>
			<point x="122" y="800" type="line"/>
			<point x="-6" y="800" type="line"/>
		</contour>
	</outline>
</glyph>
<glyph name="W" format="2">
	<advance width="742"/>
	<unicode hex="0057"/>
	<unicode hex="0077"/>
	<outline>
		<contour>
			<point x="161" y="0" type="line"/>
			<point x="264" y="0" type="line"/>
			<point x="372" y="465" type="line"/>
			<point x="480" y="0" type="line"/>
			<point x="581" y="0" type="line"/>
			<point x="730" y="800" type="line"/>
			<point x="602" y="800" type="line"/>
			<point x="529" y="331" type="line"/>
			<point x="429" y="800" type="line"/>
			<point x="315" y="800" type="line"/>
			<point x="215" y="331" type="line"/>
			<point x="142" y="800" type="line"/>
			<point x="12" y="800" type="line"/>
		</contour>
	</outline>
</glyph>
<glyph name="X" format="2">
	<advance width="525"/>
	<unicode hex="0058"/>
	<unicode hex="0078"/>
	<outline>
		<contour>
			<point x="359" y="0" type="line"/>
			<point x="514" y="0" type="line"/>
			<point x="174" y="800" type="line"/>
			<point x="19" y="800" type="line"/>
		</contour>
		<contour>
			<point x="10" y="0" type="line"/>
			<point x="165" y="0" type="line"/>
			<point x="505" y="800" type="line"/>
			<point x="350" y="800" type="line"/>
		</contour>
	</outline>
</glyph>
<glyph name="Y" format="2">
	<advance width="486"/>
	<unicode hex="0059"/>
	<unicode hex="0079"/>
	<anchor x="243" y="800" name="top"/>
	<outline>
		<contour>
			<point x="176" y="0" type="line"/>
			<point x="310" y="0" type="line"/>
			<point x="310" y="391" type="line"/>
			<point x="499" y="800" type="line"/>
			<point x="347" y="800" type="line"/>
			<point x="243" y="553" type="line"/>
			<point x="139" y="800" type="line"/>
			<point x="-13" y="800" type="line"/>
			<point x="176" y="391" type="line"/>
		</contour>
	</outline>
</glyph>
<glyph name="Z" format="2">
	<advance width="492"/>
	<unicode hex="005A"/>
	<unicode hex="007A"/>
	<outline>
		<contour>
			<point x="38" y="130" type="line"/>
			<point x="195" y="130" type="line"/>
			<point x="455" y="670" type="line"/>
			<point x="298" y="670" type="line"/>
		</contour>
		<contour>
			<point x="38" y="0" type="line"/>
			<point x="455" y="0" type="line"/>
			<point x="455" y="130" type="line"/>
			<point x="38" y="130" type="line"/>
		</contour>
		<contour>
			<point x="38" y="670" type="line"/>
			<point x="455" y="670" type="line"/>
			<point x="455" y="800" type="line"/>
			<point x="38" y="800" type="line"/>
		</contour>
	</outline>
</glyph>
<glyph name="bracketleft" format="2">
	<advance width="363"/>
	<unicode hex="005B"/>
	<outline>
		<contour>
			<point x="50" y="0" type="line"/>
			<point x="185" y="0" type="line"/>
			<point x="185" y="800" type="line"/>
			<point x="50" y="800" type="line"/>
		</contour>
		<contour>
			<point x="132" y="0" type="line"/>
			<point x="363" y="0" type="line"/>
			<point x="363" y="118" type="line"/>
			<point x="132" y="118" type="line"/>
		</contour>
		<contour>
			<point x="132" y="682" type="line"/>
			<point x="363" y="682" type="line"/>
			<point x="363" y="800" type="line"/>
			<point x="132" y="800" type="line"/>
		</contour>
	</outline>
</glyph>
<glyph name="asciicircum" format="2">
	<advance width="350"/>
	<unicode hex="005E"/>
	<outline>
		<contour>
			<point x="57" y="400" type="line"/>
			<point x="138" y="400" type="line"/>
			<point x="175" y="477" type="line"/>
			<point x="212" y="400" type="line"/>
			<point x="295" y="400" type="line"/>
			<point x="249" y="524" type="line"/>
			<point x="103" y="524" type="line"/>
		</contour>
	</outline>
</glyph>
<glyph name="underscore" format="2">
	<advance width="435"/>
	<unicode hex="005F"/>
	<outline>
		<contour>
			<point x="30" y="-108" type="line"/>
			<point x="405" y="-108" type="line"/>
			<point x="405" y="0" type="line"/>
			<point x="30" y="0" type="line"/>
		</contour>
	</outline>
</glyph>
<glyph name="bar" format="2">
	<advance width="255"/>
	<unicode hex="007C"/>
	<outline>
		<contour>
			<point x="80" y="0" type="line"/>
			<point x="175" y="0" type="line"/>
			<point x="175" y="800" type="line"/>
			<point x="80" y="800" type="line"/>
		</contour>
	</outline>
</glyph>
<glyph name="sterling" format="2">
	<advance width="591"/>
	<unicode hex="00A3"/>
	<outline>
		<contour>
			<point x="102" y="0" type="line"/>
			<point x="526" y="0" type="line"/>
			<point x="526" y="130" type="line"/>
			<point x="237" y="130" type="line"/>
			<point x="237" y="608" type="line" smooth="yes"/>
			<point x="237" y="662"/>
			<point x="243" y="675"/>
			<point x="322" y="675" type="curve" smooth="yes"/>
			<point x="395" y="675"/>
			<point x="401" y="662"/>
			<point x="401" y="608" type="curve" smooth="yes"/>
			<point x="401" y="464" type="line"/>
			<point x="536" y="464" type="line"/>
			<point x="536" y="618" type="line" smooth="yes"/>
			<point x="536" y="754"/>
			<point x="479" y="810"/>
			<point x="322" y="810" type="curve" smooth="yes"/>
			<point x="159" y="810"/>
			<point x="102" y="754"/>
			<point x="102" y="618" type="curve" smooth="yes"/>
		</contour>
		<contour>
			<point x="15" y="254" type="line"/>
			<point x="484" y="254" type="line"/>
			<point x="484" y="384" type="line"/>
			<point x="15" y="384" type="line"/>
		</contour>
	</outline>
</glyph>
<glyph name="section" format="2">
	<advance width="604"/>
	<unicode hex="00A7"/>
	<outline>
		<contour>
			<point x="302" y="-208" type="curve" smooth="yes"/>
			<point x="472" y="-208"/>
			<point x="539" y="-152"/>
			<point x="539" y="-16" type="curve" smooth="yes"/>
			<point x="539" y="121" type="line" smooth="yes"/>
			<point x="539" y="148"/>
			<point x="533" y="169"/>
			<point x="501" y="184" type="curve"/>
			<point x="533" y="210"/>
			<point x="539" y="243"/>
			<point x="539" y="283" type="curve" smooth="yes"/>
			<point x="539" y="424" type="line" smooth="yes"/>
			<point x="539" y="499"/>
			<point x="492" y="524"/>
			<point x="404" y="525" type="curve" smooth="yes"/>
			<point x="243" y="526" type="line" smooth="yes"/>
			<point x="210" y="526"/>
			<point x="200" y="531"/>
			<point x="200" y="569" type="curve" smooth="yes"/>
			<point x="200" y="605" type="line" smooth="yes"/>
			<point x="200" y="659"/>
			<point x="216" y="672"/>
			<point x="302" y="672" type="curve" smooth="yes"/>
			<point x="384" y="672"/>
			<point x="400" y="659"/>
			<point x="400" y="605" type="curve" smooth="yes"/>
			<point x="400" y="575" type="line"/>
			<point x="535" y="575" type="line"/>
			<point x="535" y="615" type="line" smooth="yes"/>
			<point x="535" y="751"/>
			<point x="468" y="807"/>
			<point x="302" y="807" type="curve" smooth="yes"/>
			<point x="132" y="807"/>
			<point x="65" y="751"/>
			<point x="65" y="615" type="curve" smooth="yes"/>
			<point x="65" y="543" type="line" smooth="yes"/>
			<point x="65" y="497"/>
			<point x="73" y="463"/>
			<point x="113" y="439" type="curve"/>
			<point x="72" y="410"/>
			<point x="65" y="371"/>
			<point x="65" y="322" type="curve" smooth="yes"/>
			<point x="65" y="240" type="line" smooth="yes"/>
			<point x="65" y="144"/>
			<point x="99" y="98"/>
			<point x="214" y="96" type="curve" smooth="yes"/>
			<point x="367" y="94" type="line" smooth="yes"/>
			<point x="396" y="94"/>
			<point x="404" y="77"/>
			<point x="404" y="45" type="curve" smooth="yes"/>
			<point x="404" y="-6" type="line" smooth="yes"/>
			<point x="404" y="-60"/>
			<point x="388" y="-73"/>
			<point x="302" y="-73" type="curve" smooth="yes"/>
			<point x="216" y="-73"/>
			<point x="200" y="-60"/>
			<point x="200" y="-6" type="curve" smooth="yes"/>
			<point x="200" y="43" type="line"/>
			<point x="65" y="43" type="line"/>
			<point x="65" y="-16" type="line" smooth="yes"/>
			<point x="65" y="-152"/>
			<point x="132" y="-208"/>
		</contour>
		<contour>
			<point x="302" y="226" type="curve" smooth="yes"/>
			<point x="216" y="226"/>
			<point x="200" y="239"/>
			<point x="200" y="293" type="curve" smooth="yes"/>
			<point x="200" y="312" type="line" smooth="yes"/>
			<point x="200" y="366"/>
			<point x="216" y="379"/>
			<point x="302" y="379" type="curve" smooth="yes"/>
			<point x="384" y="379"/>
			<point x="400" y="366"/>
			<point x="400" y="312" type="curve" smooth="yes"/>
			<point x="400" y="293" type="line" smooth="yes"/>
			<point x="400" y="239"/>
			<point x="388" y="226"/>
		</contour>
	</outline>
</glyph>
<glyph name="dieresis" format="2">
	<advance width="340"/>
	<unicode hex="00A8"/>
	<anchor x="167" y="800" name="_top"/>
	<outline>
		<contour>
			<point x="197" y="800" type="line"/>
			<point x="299" y="800" type="line"/>
			<point x="299" y="894" type="line"/>
			<point x="197" y="894" type="line"/>
		</contour>
		<contour>
			<point x="37" y="800" type="line"/>
			<point x="139" y="800" type="line"/>
			<point x="139" y="894" type="line"/>
			<point x="37" y="894" type="line"/>
		</contour>
	</outline>
</glyph>
<glyph name="guillemetleft" format="2">
	<advance width="580"/>
	<unicode hex="00AB"/>
	<outline>
		<contour>
			<point x="515" y="153" type="line"/>
			<point x="548" y="180" type="line"/>
			<point x="418" y="416" type="line"/>
			<point x="548" y="652" type="line"/>
			<point x="515" y="679" type="line"/>
			<point x="279" y="427" type="line"/>
			<point x="279" y="405" type="line"/>
		</contour>
		<contour>
			<point x="285" y="153" type="line"/>
			<point x="318" y="180" type="line"/>
			<point x="188" y="416" type="line"/>
			<point x="318" y="652" type="line"/>
			<point x="285" y="679" type="line"/>
			<point x="49" y="427" type="line"/>
			<point x="49" y="405" type="line"/>
		</contour>
	</outline>
</glyph>
<glyph name="degree" format="2">
	<advance width="338"/>
	<unicode hex="00B0"/>
	<outline>
		<contour>
			<point x="169" y="470" type="curve" smooth="yes"/>
			<point x="276" y="470"/>
			<point x="328" y="512"/>
			<point x="328" y="637" type="curve" smooth="yes"/>
			<point x="328" y="767"/>
			<point x="276" y="810"/>
			<point x="169" y="810" type="curve" smooth="yes"/>
			<point x="62" y="810"/>
			<point x="10" y="767"/>
			<point x="10" y="637" type="curve" smooth="yes"/>
			<point x="10" y="512"/>
			<point x="62" y="470"/>
		</contour>
		<contour>
			<point x="169" y="565" type="curve" smooth="yes"/>
			<point x="129" y="565"/>
			<point x="112" y="584"/>
			<point x="112" y="637" type="curve" smooth="yes"/>
			<point x="112" y="691"/>
			<point x="128" y="715"/>
			<point x="169" y="715" type="curve" smooth="yes"/>
			<point x="211" y="715"/>
			<point x="226" y="691"/>
			<point x="226" y="637" type="curve" smooth="yes"/>
			<point x="226" y="584"/>
			<point x="211" y="565"/>
		</contour>
	</outline>
</glyph>
<glyph name="acute" format="2">
	<advance width="214"/>
	<unicode hex="00B4"/>
	<anchor x="67" y="800" name="_top"/>
	<outline>
		<contour>
			<point x="28" y="800" type="line"/>
			<point x="109" y="800" type="line"/>
			<point x="154" y="924" type="line"/>
			<point x="44" y="924" type="line"/>
		</contour>
	</outline>
</glyph>
<glyph name="paragraph" format="2">
	<advance width="655"/>
	<unicode hex="00B6"/>
	<outline>
		<contour>
			<point x="234" y="0" type="line"/>
			<point x="369" y="0" type="line"/>
			<point x="369" y="800" type="line"/>
			<point x="185" y="800" type="line" smooth="yes"/>
			<point x="74" y="800"/>
			<point x="40" y="756"/>
			<point x="40" y="649" type="curve" smooth="yes"/>
			<point x="40" y="452" type="line" smooth="yes"/>
			<point x="40" y="347"/>
			<point x="89" y="309"/>
			<point x="185" y="309" type="curve" smooth="yes"/>
			<point x="234" y="309" type="line"/>
		</contour>
		<component base="I" xOffset="360"/>
	</outline>
</glyph>
<glyph name="cedilla" format="2">
	<advance width="600"/>
	<unicode hex="00B8"/>
	<outline>
		<contour>
			<point x="208" y="-154" type="line"/>
			<point x="340" y="-154" type="line"/>
			<point x="350" y="0" type="line"/>
			<point x="248" y="0" type="line"/>
		</contour>
	</outline>
</glyph>
<glyph name="Agrave" format="2">
	<advance width="510"/>
	<unicode hex="00C0"/>
	<unicode hex="00E0"/>
	<anchor x="255" y="800" name="top"/>
	<outline>
		<contour>
			<point x="-6" y="0" type="line"/>
			<point x="122" y="0" type="line"/>
			<point x="255" y="537" type="line"/>
			<point x="388" y="0" type="line"/>
			<point x="516" y="0" type="line"/>
			<point x="317" y="800" type="line"/>
			<point x="193" y="800" type="line"/>
		</contour>
		<contour>
			<point x="139" y="151" type="line"/>
			<point x="425" y="151" type="line"/>
			<point x="425" y="267" type="line"/>
			<point x="139" y="267" type="line"/>
		</contour>
		<contour>
			<point x="236" y="800" type="line"/>
			<point x="317" y="800" type="line"/>
			<point x="288" y="924" type="line"/>
			<point x="178" y="924" type="line"/>
		</contour>
	</outline>
</glyph>
<glyph name="Acircumflex" format="2">
	<advance width="510"/>
	<unicode hex="00C2"/>
	<unicode hex="00E2"/>
	<anchor x="255" y="800" name="top"/>
	<outline>
		<contour>
			<point x="-6" y="0" type="line"/>
			<point x="122" y="0" type="line"/>
			<point x="255" y="537" type="line"/>
			<point x="388" y="0" type="line"/>
			<point x="516" y="0" type="line"/>
			<point x="317" y="800" type="line"/>
			<point x="193" y="800" type="line"/>
		</contour>
		<contour>
			<point x="139" y="151" type="line"/>
			<point x="425" y="151" type="line"/>
			<point x="425" y="267" type="line"/>
			<point x="139" y="267" type="line"/>
		</contour>
		<contour>
			<point x="137" y="800" type="line"/>
			<point x="218" y="800" type="line"/>
			<point x="255" y="877" type="line"/>
			<point x="292" y="800" type="line"/>
			<point x="375" y="800" type="line"/>
			<point x="329" y="924" type="line"/>
			<point x="183" y="924" type="line"/>
		</contour>
	</outline>
</glyph>
<glyph name="Adieresis" format="2">
	<advance width="510"/>
	<unicode hex="00C4"/>
	<unicode hex="00E4"/>
	<anchor x="255" y="800" name="top"/>
	<outline>
		<contour>
			<point x="-6" y="0" type="line"/>
			<point x="122" y="0" type="line"/>
			<point x="255" y="537" type="line"/>
			<point x="388" y="0" type="line"/>
			<point x="516" y="0" type="line"/>
			<point x="317" y="800" type="line"/>
			<point x="193" y="800" type="line"/>
		</contour>
		<contour>
			<point x="139" y="151" type="line"/>
			<point x="425" y="151" type="line"/>
			<point x="425" y="267" type="line"/>
			<point x="139" y="267" type="line"/>
		</contour>
		<contour>
			<point x="130" y="800" type="line"/>
			<point x="232" y="800" type="line"/>
			<point x="232" y="894" type="line"/>
			<point x="130" y="894" type="line"/>
		</contour>
		<contour>
			<point x="280" y="800" type="line"/>
			<point x="382" y="800" type="line"/>
			<point x="382" y="894" type="line"/>
			<point x="280" y="894" type="line"/>
		</contour>
	</outline>
</glyph>
<glyph name="Aring" format="2">
	<advance width="510"/>
	<unicode hex="00C5"/>
	<unicode hex="00E5"/>
	<outline>
		<contour>
			<point x="-6" y="0" type="line"/>
			<point x="122" y="0" type="line"/>
			<point x="255" y="537" type="line"/>
			<point x="388" y="0" type="line"/>
			<point x="516" y="0" type="line"/>
			<point x="329" y="753" type="line"/>
			<point x="181" y="753" type="line"/>
		</contour>
		<contour>
			<point x="139" y="151" type="line"/>
			<point x="425" y="151" type="line"/>
			<point x="425" y="267" type="line"/>
			<point x="139" y="267" type="line"/>
		</contour>
		<component base="ring" xOffset="-48" yOffset="130"/>
	</outline>
</glyph>
<glyph name="AE" format="2">
	<advance width="789"/>
	<unicode hex="00C6"/>
	<unicode hex="00E6"/>
	<outline>
		<contour>
			<point x="-6" y="0" type="line"/>
			<point x="120" y="0" type="line"/>
			<point x="378" y="800" type="line"/>
			<point x="261" y="800" type="line"/>
		</contour>
		<contour>
			<point x="167" y="151" type="line"/>
			<point x="361" y="151" type="line"/>
			<point x="361" y="267" type="line"/>
			<point x="167" y="267" type="line"/>
		</contour>
		<component base="E" xOffset="260"/>
	</outline>
</glyph>
<glyph name="Ccedilla" format="2">
	<advance width="595"/>
	<unicode hex="00C7"/>
	<unicode hex="00E7"/>
	<outline>
		<contour>
			<point x="208" y="-154" type="line"/>
			<point x="340" y="-154" type="line"/>
			<point x="350" y="0" type="line"/>
			<point x="248" y="0" type="line"/>
		</contour>
		<component base="C"/>
	</outline>
</glyph>
<glyph name="Eacute" format="2">
	<advance width="528"/>
	<unicode hex="00C9"/>
	<unicode hex="00E9"/>
	<guideline x="304" y="924" angle="180"/>
	<outline>
		<contour>
			<point x="233" y="800" type="line"/>
			<point x="314" y="800" type="line"/>
			<point x="359" y="924" type="line"/>
			<point x="249" y="924" type="line"/>
		</contour>
		<component base="E"/>
	</outline>
</glyph>
<glyph name="Ecircumflex" format="2">
	<advance width="528"/>
	<unicode hex="00CA"/>
	<unicode hex="00EA"/>
	<anchor x="286" y="800" name="top"/>
	<outline>
		<contour>
			<point x="80" y="0" type="line"/>
			<point x="493" y="0" type="line"/>
			<point x="493" y="130" type="line"/>
			<point x="215" y="130" type="line"/>
			<point x="215" y="339" type="line"/>
			<point x="422" y="339" type="line"/>
			<point x="422" y="469" type="line"/>
			<point x="215" y="469" type="line"/>
			<point x="215" y="670" type="line"/>
			<point x="493" y="670" type="line"/>
			<point x="493" y="800" type="line"/>
			<point x="80" y="800" type="line"/>
		</contour>
		<contour>
			<point x="167" y="800" type="line"/>
			<point x="248" y="800" type="line"/>
			<point x="285" y="877" type="line"/>
			<point x="322" y="800" type="line"/>
			<point x="405" y="800" type="line"/>
			<point x="359" y="924" type="line"/>
			<point x="213" y="924" type="line"/>
		</contour>
	</outline>
</glyph>
<glyph name="Igrave" format="2">
	<advance width="295"/>
	<unicode hex="00CC"/>
	<unicode hex="00EC"/>
	<anchor x="152" y="800" name="top"/>
	<outline>
		<contour>
			<point x="80" y="0" type="line"/>
			<point x="215" y="0" type="line"/>
			<point x="215" y="800" type="line"/>
			<point x="80" y="800" type="line"/>
		</contour>
		<contour>
			<point x="134" y="800" type="line"/>
			<point x="215" y="800" type="line"/>
			<point x="199" y="924" type="line"/>
			<point x="89" y="924" type="line"/>
		</contour>
	</outline>
</glyph>
<glyph name="Iacute" format="2">
	<advance width="295"/>
	<unicode hex="00CD"/>
	<unicode hex="00ED"/>
	<anchor x="152" y="800" name="top"/>
	<outline>
		<contour>
			<point x="80" y="0" type="line"/>
			<point x="215" y="0" type="line"/>
			<point x="215" y="800" type="line"/>
			<point x="80" y="800" type="line"/>
		</contour>
		<contour>
			<point x="134" y="800" type="line"/>
			<point x="215" y="800" type="line"/>
			<point x="260" y="924" type="line"/>
			<point x="150" y="924" type="line"/>
		</contour>
	</outline>
</glyph>
<glyph name="Icircumflex" format="2">
	<advance width="295"/>
	<unicode hex="00CE"/>
	<unicode hex="00EE"/>
	<anchor x="152" y="800" name="top"/>
	<outline>
		<contour>
			<point x="80" y="0" type="line"/>
			<point x="215" y="0" type="line"/>
			<point x="215" y="800" type="line"/>
			<point x="80" y="800" type="line"/>
		</contour>
		<contour>
			<point x="34" y="800" type="line"/>
			<point x="115" y="800" type="line"/>
			<point x="152" y="877" type="line"/>
			<point x="189" y="800" type="line"/>
			<point x="272" y="800" type="line"/>
			<point x="226" y="924" type="line"/>
			<point x="80" y="924" type="line"/>
		</contour>
	</outline>
</glyph>
<glyph name="Idieresis" format="2">
	<advance width="295"/>
	<unicode hex="00CF"/>
	<unicode hex="00EF"/>
	<anchor x="152" y="800" name="top"/>
	<outline>
		<contour>
			<point x="80" y="0" type="line"/>
			<point x="215" y="0" type="line"/>
			<point x="215" y="800" type="line"/>
			<point x="80" y="800" type="line"/>
		</contour>
		<contour>
			<point x="22" y="800" type="line"/>
			<point x="124" y="800" type="line"/>
			<point x="124" y="894" type="line"/>
			<point x="22" y="894" type="line"/>
		</contour>
		<contour>
			<point x="182" y="800" type="line"/>
			<point x="284" y="800" type="line"/>
			<point x="284" y="894" type="line"/>
			<point x="182" y="894" type="line"/>
		</contour>
	</outline>
</glyph>
<glyph name="Ograve" format="2">
	<advance width="604"/>
	<unicode hex="00D2"/>
	<unicode hex="00F2"/>
	<anchor x="302" y="800" name="top"/>
	<outline>
		<contour>
			<point x="302" y="-10" type="curve" smooth="yes"/>
			<point x="472" y="-10"/>
			<point x="539" y="46"/>
			<point x="539" y="182" type="curve" smooth="yes"/>
			<point x="539" y="618" type="line" smooth="yes"/>
			<point x="539" y="754"/>
			<point x="472" y="810"/>
			<point x="302" y="810" type="curve" smooth="yes"/>
			<point x="132" y="810"/>
			<point x="65" y="754"/>
			<point x="65" y="618" type="curve" smooth="yes"/>
			<point x="65" y="182" type="line" smooth="yes"/>
			<point x="65" y="46"/>
			<point x="132" y="-10"/>
		</contour>
		<contour>
			<point x="302" y="125" type="curve" smooth="yes"/>
			<point x="216" y="125"/>
			<point x="200" y="138"/>
			<point x="200" y="192" type="curve" smooth="yes"/>
			<point x="200" y="608" type="line" smooth="yes"/>
			<point x="200" y="662"/>
			<point x="216" y="675"/>
			<point x="302" y="675" type="curve" smooth="yes"/>
			<point x="388" y="675"/>
			<point x="404" y="662"/>
			<point x="404" y="608" type="curve" smooth="yes"/>
			<point x="404" y="192" type="line" smooth="yes"/>
			<point x="404" y="138"/>
			<point x="388" y="125"/>
		</contour>
		<contour>
			<point x="265" y="800" type="line"/>
			<point x="346" y="800" type="line"/>
			<point x="330" y="924" type="line"/>
			<point x="220" y="924" type="line"/>
		</contour>
	</outline>
</glyph>
<glyph name="Ocircumflex" format="2">
	<advance width="604"/>
	<unicode hex="00D4"/>
	<unicode hex="00F4"/>
	<anchor x="302" y="800" name="top"/>
	<outline>
		<contour>
			<point x="302" y="-10" type="curve" smooth="yes"/>
			<point x="472" y="-10"/>
			<point x="539" y="46"/>
			<point x="539" y="182" type="curve" smooth="yes"/>
			<point x="539" y="618" type="line" smooth="yes"/>
			<point x="539" y="754"/>
			<point x="472" y="810"/>
			<point x="302" y="810" type="curve" smooth="yes"/>
			<point x="132" y="810"/>
			<point x="65" y="754"/>
			<point x="65" y="618" type="curve" smooth="yes"/>
			<point x="65" y="182" type="line" smooth="yes"/>
			<point x="65" y="46"/>
			<point x="132" y="-10"/>
		</contour>
		<contour>
			<point x="302" y="125" type="curve" smooth="yes"/>
			<point x="216" y="125"/>
			<point x="200" y="138"/>
			<point x="200" y="192" type="curve" smooth="yes"/>
			<point x="200" y="608" type="line" smooth="yes"/>
			<point x="200" y="662"/>
			<point x="216" y="675"/>
			<point x="302" y="675" type="curve" smooth="yes"/>
			<point x="388" y="675"/>
			<point x="404" y="662"/>
			<point x="404" y="608" type="curve" smooth="yes"/>
			<point x="404" y="192" type="line" smooth="yes"/>
			<point x="404" y="138"/>
			<point x="388" y="125"/>
		</contour>
		<contour>
			<point x="426" y="789" type="line"/>
			<point x="376" y="924" type="line"/>
			<point x="230" y="924" type="line"/>
			<point x="181" y="792" type="line"/>
			<point x="265" y="800" type="line"/>
			<point x="302" y="877" type="line"/>
			<point x="339" y="800" type="line"/>
		</contour>
	</outline>
</glyph>
<glyph name="Odieresis" format="2">
	<advance width="604"/>
	<unicode hex="00D6"/>
	<unicode hex="00F6"/>
	<anchor x="302" y="800" name="top"/>
	<outline>
		<contour>
			<point x="302" y="-10" type="curve" smooth="yes"/>
			<point x="472" y="-10"/>
			<point x="539" y="46"/>
			<point x="539" y="182" type="curve" smooth="yes"/>
			<point x="539" y="618" type="line" smooth="yes"/>
			<point x="539" y="754"/>
			<point x="472" y="810"/>
			<point x="302" y="810" type="curve" smooth="yes"/>
			<point x="132" y="810"/>
			<point x="65" y="754"/>
			<point x="65" y="618" type="curve" smooth="yes"/>
			<point x="65" y="182" type="line" smooth="yes"/>
			<point x="65" y="46"/>
			<point x="132" y="-10"/>
		</contour>
		<contour>
			<point x="302" y="125" type="curve" smooth="yes"/>
			<point x="216" y="125"/>
			<point x="200" y="138"/>
			<point x="200" y="192" type="curve" smooth="yes"/>
			<point x="200" y="608" type="line" smooth="yes"/>
			<point x="200" y="662"/>
			<point x="216" y="675"/>
			<point x="302" y="675" type="curve" smooth="yes"/>
			<point x="388" y="675"/>
			<point x="404" y="662"/>
			<point x="404" y="608" type="curve" smooth="yes"/>
			<point x="404" y="192" type="line" smooth="yes"/>
			<point x="404" y="138"/>
			<point x="388" y="125"/>
		</contour>
		<contour>
			<point x="172" y="790" type="line"/>
			<point x="274" y="790" type="line"/>
			<point x="274" y="894" type="line"/>
			<point x="172" y="894" type="line"/>
		</contour>
		<contour>
			<point x="332" y="790" type="line"/>
			<point x="434" y="790" type="line"/>
			<point x="434" y="894" type="line"/>
			<point x="332" y="894" type="line"/>
		</contour>
	</outline>
</glyph>
<glyph name="Oslash" format="2">
	<advance width="604"/>
	<unicode hex="00D8"/>
	<unicode hex="00F8"/>
	<outline>
		<contour>
			<point x="254" y="58" type="line"/>
			<point x="455" y="677" type="line"/>
			<point x="346" y="726" type="line"/>
			<point x="146" y="110" type="line"/>
		</contour>
		<component base="O"/>
	</outline>
</glyph>
<glyph name="Ugrave" format="2">
	<advance width="600"/>
	<unicode hex="00D9"/>
	<unicode hex="00F9"/>
	<outline>
		<contour>
			<point x="400" y="693" type="line"/>
			<point x="439" y="726" type="line"/>
			<point x="391" y="924" type="line"/>
			<point x="277" y="924" type="line"/>
		</contour>
		<component base="U"/>
	</outline>
</glyph>
<glyph name="Uacute" format="2">
	<advance width="606"/>
	<unicode hex="00DA"/>
	<unicode hex="00FA"/>
	<anchor x="303" y="800" name="top"/>
	<outline>
		<contour>
			<point x="303" y="-10" type="curve" smooth="yes"/>
			<point x="468" y="-10"/>
			<point x="535" y="61"/>
			<point x="535" y="200" type="curve" smooth="yes"/>
			<point x="535" y="800" type="line"/>
			<point x="400" y="800" type="line"/>
			<point x="400" y="209" type="line" smooth="yes"/>
			<point x="400" y="152"/>
			<point x="384" y="123"/>
			<point x="303" y="123" type="curve" smooth="yes"/>
			<point x="222" y="123"/>
			<point x="206" y="152"/>
			<point x="206" y="209" type="curve" smooth="yes"/>
			<point x="206" y="800" type="line"/>
			<point x="71" y="800" type="line"/>
			<point x="71" y="200" type="line" smooth="yes"/>
			<point x="71" y="61"/>
			<point x="138" y="-10"/>
		</contour>
		<contour>
			<point x="208" y="693" type="line"/>
			<point x="331" y="924" type="line"/>
			<point x="217" y="924" type="line"/>
			<point x="169" y="726" type="line"/>
		</contour>
	</outline>
</glyph>
<glyph name="Ucircumflex" format="2">
	<advance width="606"/>
	<unicode hex="00DB"/>
	<unicode hex="00FB"/>
	<anchor x="303" y="800" name="top"/>
	<outline>
		<contour>
			<point x="303" y="-10" type="curve" smooth="yes"/>
			<point x="468" y="-10"/>
			<point x="535" y="61"/>
			<point x="535" y="200" type="curve" smooth="yes"/>
			<point x="535" y="800" type="line"/>
			<point x="400" y="800" type="line"/>
			<point x="400" y="209" type="line" smooth="yes"/>
			<point x="400" y="152"/>
			<point x="384" y="123"/>
			<point x="303" y="123" type="curve" smooth="yes"/>
			<point x="222" y="123"/>
			<point x="206" y="152"/>
			<point x="206" y="209" type="curve" smooth="yes"/>
			<point x="206" y="800" type="line"/>
			<point x="71" y="800" type="line"/>
			<point x="71" y="200" type="line" smooth="yes"/>
			<point x="71" y="61"/>
			<point x="138" y="-10"/>
		</contour>
		<contour>
			<point x="401" y="673" type="line"/>
			<point x="434" y="800" type="line"/>
			<point x="377" y="924" type="line"/>
			<point x="231" y="924" type="line"/>
			<point x="185" y="800" type="line"/>
			<point x="206" y="676" type="line"/>
			<point x="303" y="877" type="line"/>
		</contour>
	</outline>
</glyph>
<glyph name="Udieresis" format="2">
	<advance width="606"/>
	<unicode hex="00DC"/>
	<unicode hex="00FC"/>
	<anchor x="303" y="800" name="top"/>
	<outline>
		<contour>
			<point x="303" y="-10" type="curve" smooth="yes"/>
			<point x="468" y="-10"/>
			<point x="535" y="61"/>
			<point x="535" y="200" type="curve" smooth="yes"/>
			<point x="535" y="800" type="line"/>
			<point x="400" y="800" type="line"/>
			<point x="400" y="209" type="line" smooth="yes"/>
			<point x="400" y="152"/>
			<point x="384" y="123"/>
			<point x="303" y="123" type="curve" smooth="yes"/>
			<point x="222" y="123"/>
			<point x="206" y="152"/>
			<point x="206" y="209" type="curve" smooth="yes"/>
			<point x="206" y="800" type="line"/>
			<point x="71" y="800" type="line"/>
			<point x="71" y="200" type="line" smooth="yes"/>
			<point x="71" y="61"/>
			<point x="138" y="-10"/>
		</contour>
		<contour>
			<point x="173" y="790" type="line"/>
			<point x="275" y="790" type="line"/>
			<point x="275" y="894" type="line"/>
			<point x="173" y="894" type="line"/>
		</contour>
		<contour>
			<point x="333" y="790" type="line"/>
			<point x="435" y="790" type="line"/>
			<point x="435" y="894" type="line"/>
			<point x="333" y="894" type="line"/>
		</contour>
	</outline>
</glyph>
<glyph name="OE" format="2">
	<advance width="852"/>
	<unicode hex="0152"/>
	<unicode hex="0153"/>
	<outline>
		<contour>
			<point x="302" y="0" type="curve" smooth="yes"/>
			<point x="817" y="0" type="line"/>
			<point x="817" y="130" type="line"/>
			<point x="539" y="130" type="line"/>
			<point x="539" y="339" type="line"/>
			<point x="746" y="339" type="line"/>
			<point x="746" y="469" type="line"/>
			<point x="539" y="469" type="line"/>
			<point x="539" y="670" type="line"/>
			<point x="817" y="670" type="line"/>
			<point x="817" y="800" type="line"/>
			<point x="302" y="800" type="line" smooth="yes"/>
			<point x="132" y="800"/>
			<point x="65" y="744"/>
			<point x="65" y="608" type="curve" smooth="yes"/>
			<point x="65" y="192" type="line" smooth="yes"/>
			<point x="65" y="56"/>
			<point x="132" y="0"/>
		</contour>
		<contour>
			<point x="302" y="125" type="line" smooth="yes"/>
			<point x="216" y="125"/>
			<point x="200" y="138"/>
			<point x="200" y="192" type="curve" smooth="yes"/>
			<point x="200" y="608" type="line" smooth="yes"/>
			<point x="200" y="662"/>
			<point x="216" y="675"/>
			<point x="302" y="675" type="curve" smooth="yes"/>
			<point x="404" y="675" type="line"/>
			<point x="404" y="125" type="line"/>
		</contour>
	</outline>
</glyph>
<glyph name="Ydieresis" format="2">
	<advance width="486"/>
	<unicode hex="0178"/>
	<unicode hex="00FF"/>
	<anchor x="243" y="800" name="top"/>
	<outline>
		<contour>
			<point x="176" y="0" type="line"/>
			<point x="310" y="0" type="line"/>
			<point x="310" y="391" type="line"/>
			<point x="499" y="800" type="line"/>
			<point x="347" y="800" type="line"/>
			<point x="243" y="553" type="line"/>
			<point x="139" y="800" type="line"/>
			<point x="-13" y="800" type="line"/>
			<point x="176" y="391" type="line"/>
		</contour>
		<contour>
			<point x="113" y="790" type="line"/>
			<point x="215" y="790" type="line"/>
			<point x="215" y="894" type="line"/>
			<point x="113" y="894" type="line"/>
		</contour>
		<contour>
			<point x="273" y="790" type="line"/>
			<point x="375" y="790" type="line"/>
			<point x="375" y="894" type="line"/>
			<point x="273" y="894" type="line"/>
		</contour>
	</outline>
</glyph>
<glyph name="circumflex" format="2">
	<advance width="350"/>
	<unicode hex="02C6"/>
	<anchor x="175" y="800" name="_top"/>
	<outline>
		<contour>
			<point x="57" y="800" type="line"/>
			<point x="138" y="800" type="line"/>
			<point x="175" y="877" type="line"/>
			<point x="212" y="800" type="line"/>
			<point x="295" y="800" type="line"/>
			<point x="249" y="924" type="line"/>
			<point x="103" y="924" type="line"/>
		</contour>
	</outline>
</glyph>
<glyph name="ring" format="2">
	<advance width="600"/>
	<unicode hex="02DA"/>
	<outline>
		<contour>
			<point x="303" y="560" type="curve" smooth="yes"/>
			<point x="384" y="560"/>
			<point x="424" y="592"/>
			<point x="424" y="679" type="curve" smooth="yes"/>
			<point x="424" y="770"/>
			<point x="384" y="803"/>
			<point x="303" y="803" type="curve" smooth="yes"/>
			<point x="222" y="803"/>
			<point x="182" y="770"/>
			<point x="182" y="679" type="curve" smooth="yes"/>
			<point x="182" y="592"/>
			<point x="222" y="560"/>
		</contour>
		<contour>
			<point x="303" y="631" type="curve" smooth="yes"/>
			<point x="272" y="631"/>
			<point x="259" y="646"/>
			<point x="259" y="679" type="curve" smooth="yes"/>
			<point x="259" y="712"/>
			<point x="272" y="731"/>
			<point x="303" y="731" type="curve" smooth="yes"/>
			<point x="335" y="731"/>
			<point x="347" y="712"/>
			<point x="347" y="679" type="curve" smooth="yes"/>
			<point x="347" y="646"/>
			<point x="335" y="631"/>
		</contour>
	</outline>
</glyph>
<glyph name="Germandbls" format="2">
	<advance width="649"/>
	<unicode hex="1E9E"/>
	<unicode hex="00DF"/>
	<outline>
		<contour>
			<point x="241" y="-10" type="line"/>
			<point x="347" y="-10" type="line" smooth="yes"/>
			<point x="517" y="-10"/>
			<point x="584" y="46"/>
			<point x="584" y="182" type="curve" smooth="yes"/>
			<point x="584" y="324" type="line" smooth="yes"/>
			<point x="584" y="421"/>
			<point x="530" y="465"/>
			<point x="440" y="465" type="curve"/>
			<point x="564" y="651" type="line"/>
			<point x="564" y="738" type="line"/>
			<point x="486" y="776"/>
			<point x="407" y="810"/>
			<point x="302" y="810" type="curve" smooth="yes"/>
			<point x="150" y="810"/>
			<point x="65" y="744"/>
			<point x="65" y="608" type="curve" smooth="yes"/>
			<point x="65" y="0" type="line"/>
			<point x="200" y="0" type="line"/>
			<point x="200" y="584" type="line" smooth="yes"/>
			<point x="200" y="641"/>
			<point x="239" y="675"/>
			<point x="304" y="675" type="curve" smooth="yes"/>
			<point x="343" y="675"/>
			<point x="376" y="666"/>
			<point x="413" y="645" type="curve"/>
			<point x="250" y="391" type="line"/>
			<point x="326" y="353" type="line"/>
			<point x="339" y="365"/>
			<point x="345" y="368"/>
			<point x="365" y="368" type="curve" smooth="yes"/>
			<point x="431" y="368"/>
			<point x="449" y="348"/>
			<point x="449" y="294" type="curve" smooth="yes"/>
			<point x="449" y="192" type="line" smooth="yes"/>
			<point x="449" y="138"/>
			<point x="433" y="125"/>
			<point x="347" y="125" type="curve" smooth="yes"/>
			<point x="241" y="125" type="line"/>
		</contour>
	</outline>
</glyph>
<glyph name="emdash" format="2">
	<advance width="575"/>
	<unicode hex="2014"/>
	<outline>
		<contour>
			<point x="30" y="326" type="line"/>
			<point x="545" y="326" type="line"/>
			<point x="545" y="444" type="line"/>
			<point x="30" y="444" type="line"/>
		</contour>
	</outline>
</glyph>
<glyph name="quoteleft" format="2">
	<advance width="240"/>
	<unicode hex="2018"/>
	<anchor x="118" y="800" name="_top"/>
	<outline>
		<contour>
			<point x="144" y="483" type="line"/>
			<point x="228" y="483" type="line"/>
			<point x="178" y="800" type="line"/>
			<point x="17" y="800" type="line"/>
		</contour>
	</outline>
</glyph>
<glyph name="dagger" format="2">
	<advance width="495"/>
	<unicode hex="2020"/>
	<outline>
		<contour>
			<point x="189" y="0" type="line"/>
			<point x="307" y="0" type="line"/>
			<point x="307" y="800" type="line"/>
			<point x="189" y="800" type="line"/>
		</contour>
		<contour>
			<point x="30" y="502" type="line"/>
			<point x="465" y="502" type="line"/>
			<point x="465" y="620" type="line"/>
			<point x="30" y="620" type="line"/>
		</contour>
	</outline>
</glyph>
<glyph name="daggerdbl" format="2">
	<advance width="495"/>
	<unicode hex="2021"/>
	<outline>
		<contour>
			<point x="189" y="0" type="line"/>
			<point x="307" y="0" type="line"/>
			<point x="307" y="800" type="line"/>
			<point x="189" y="800" type="line"/>
		</contour>
		<contour>
			<point x="30" y="202" type="line"/>
			<point x="465" y="202" type="line"/>
			<point x="465" y="320" type="line"/>
			<point x="30" y="320" type="line"/>
		</contour>
		<contour>
			<point x="30" y="502" type="line"/>
			<point x="465" y="502" type="line"/>
			<point x="465" y="620" type="line"/>
			<point x="30" y="620" type="line"/>
		</contour>
	</outline>
</glyph>
<glyph name="guilsinglleft" format="2">
	<advance width="478"/>
	<unicode hex="2039"/>
	<outline>
		<contour>
			<point x="285" y="153" type="line"/>
			<point x="318" y="180" type="line"/>
			<point x="188" y="416" type="line"/>
			<point x="318" y="652" type="line"/>
			<point x="285" y="679" type="line"/>
			<point x="49" y="427" type="line"/>
			<point x="49" y="405" type="line"/>
		</contour>
	</outline>
</glyph>
<glyph name="guilsinglright" format="2">
	<advance width="350"/>
	<unicode hex="203A"/>
	<outline>
		<contour>
			<point x="82" y="153" type="line"/>
			<point x="318" y="405" type="line"/>
			<point x="318" y="427" type="line"/>
			<point x="82" y="679" type="line"/>
			<point x="49" y="652" type="line"/>
			<point x="179" y="416" type="line"/>
			<point x="49" y="180" type="line"/>
		</contour>
	</outline>
</glyph>
<glyph name="euro" format="2">
	<advance width="645"/>
	<unicode hex="20AC"/>
	<outline>
		<contour>
			<point x="30" y="436" type="line"/>
			<point x="384" y="436" type="line"/>
			<point x="384" y="554" type="line"/>
			<point x="30" y="554" type="line"/>
		</contour>
		<contour>
			<point x="30" y="236" type="line"/>
			<point x="384" y="236" type="line"/>
			<point x="384" y="354" type="line"/>
			<point x="30" y="354" type="line"/>
		</contour>
		<component base="C" xOffset="50"/>
	</outline>
</glyph>
<glyph name="VTF" format="2">
	<advance width="1292"/>
	<outline>
		<contour>
			<point x="577" y="0" type="line"/>
			<point x="712" y="0" type="line"/>
			<point x="712" y="670" type="line"/>
			<point x="959" y="670" type="line"/>
			<point x="959" y="800" type="line"/>
			<point x="440" y="800" type="line"/>
			<point x="440" y="670" type="line"/>
			<point x="577" y="670" type="line"/>
		</contour>
		<component base="V"/>
		<component base="F" xOffset="779"/>
	</outline>
</glyph>
<glyph name="bout_aster" format="2">
	<advance width="326"/>
	<outline>
		<contour>
			<point x="34" y="515" type="line"/>
			<point x="226" y="541" type="line"/>
			<point x="226" y="616" type="line"/>
			<point x="34" y="642" type="line"/>
		</contour>
	</outline>
</glyph>
<glyph name="bout_tilde" format="2">
	<advance width="289"/>
	<outline>
		<contour>
			<point x="130" y="255" type="curve"/>
			<point x="207" y="255" type="line"/>
			<point x="207" y="275"/>
			<point x="215" y="299"/>
			<point x="239" y="299" type="curve" smooth="yes"/>
			<point x="255" y="299"/>
			<point x="267" y="282"/>
			<point x="277" y="275" type="curve"/>
			<point x="301" y="345" type="line"/>
			<point x="280" y="366"/>
			<point x="259" y="372"/>
			<point x="227" y="372" type="curve" smooth="yes"/>
			<point x="168" y="372"/>
			<point x="130" y="318"/>
		</contour>
	</outline>
</glyph>
